<svg fill="none" height="24" viewBox="0 0 99 24" width="99" xmlns="http://www.w3.org/2000/svg" xmlns:xlink="http://www.w3.org/1999/xlink"><clipPath id="a"><path d="m0 0h98.6667v24h-98.6667z"/></clipPath><g clip-path="url(#a)" fill="#fff"><path d="m5.20216 15.9908c-.3777 1.7631 0 3.4943 2.19755 3.4943 1.50223 0 2.40357-.5749 2.91859-1.9667.5838-1.8013-.82405-2.616-1.81982-2.9555l-2.0602-.7128c-4.18909-1.3918-4.46378-4.78645-4.07749-6.92507.75541-4.27722 4.18909-6.92503 8.51551-6.92503 4.0517 0 6.627 2.30835 5.6999 7.33239h-5.0217c.3433-1.83309-.1717-2.81754-1.75122-2.81754-1.16745 0-2.12887.81471-2.36065 2.13861-.13734.78077 0 1.93494 1.27046 2.44414l2.23191.71287c2.5409.74683 5.7342 2.91933 4.3951 7.94343-.9614 3.2949-3.571 6.2482-8.8589 6.2482-5.631225 0-7.039032-4.0056-6.283623-8.0474h4.978833z"/><path d="m27.5896.271576h4.9445l3.3993 23.388924h-5.1848l-2.2169-16.23687-7.4661 16.23687h-5.187z"/><path d="m50.8356 4.48091c-2.9187 0-5.6312 2.85148-6.4553 7.53609-.8584 4.7206.7897 7.5042 3.7083 7.5042 1.5452 0 2.9873-.7468 4.1891-2.3783l3.7084 2.0728c-2.4036 3.2928-5.3651 4.7864-8.6872 4.7864-5.8716 0-9.3053-4.4809-7.9404-11.9851 1.3735-7.4682 6.3867-12.017 12.2582-12.017 3.3307 0 5.6999 1.48515 6.9704 4.78642l-4.4638 2.07072c-.6438-1.62942-1.7769-2.37623-3.2877-2.37623z"/><path d="m71.1629 4.48091c-2.9186 0-5.6312 2.85148-6.4553 7.53609-.8584 4.7206.7897 7.5042 3.7084 7.5042 1.5451 0 2.9873-.7468 4.1891-2.3783l3.7083 2.0728c-2.4035 3.2928-5.3651 4.7864-8.6872 4.7864-5.8716 0-9.3052-4.4809-7.9403-11.9851 1.3734-7.4682 6.3866-12.017 12.2582-12.017 3.3306 0 5.6999 1.48515 6.9703 4.78642l-4.4509 2.07072c-.6567-1.62942-1.7898-2.37623-3.3006-2.37623z"/><path d="m90.0138 23.6542-4.3908-7.7334-1.3778 7.7334h-5.0131l4.1547-23.391108h5.0132l-1.3392 7.478788 5.7944-7.468179h5.7943l-9.6572 11.643599 7.2021 11.7369z"/></g></svg>