<svg width="99" height="24" viewBox="0 0 99 24" fill="none" xmlns="http://www.w3.org/2000/svg">
<g clip-path="url(#clip0_273:274)">
<path d="M5.20216 15.9908C4.82446 17.7539 5.20216 19.4851 7.39971 19.4851C8.90194 19.4851 9.80328 18.9102 10.3183 17.5184C10.9021 15.7171 9.49425 14.9024 8.49848 14.5629L6.43828 13.8501C2.24919 12.4583 1.9745 9.06365 2.36079 6.92503C3.1162 2.64781 6.54988 0 10.8763 0C14.928 0 17.5033 2.30835 16.5762 7.33239H11.5545C11.8978 5.4993 11.3828 4.51485 9.80328 4.51485C8.63583 4.51485 7.67441 5.32956 7.44263 6.65346C7.30529 7.43423 7.44263 8.5884 8.71309 9.0976L10.945 9.81047C13.4859 10.5573 16.6792 12.7298 15.3401 17.7539C14.3787 21.0488 11.7691 24.0021 6.4812 24.0021C0.849975 24.0021 -0.557832 19.9965 0.197577 15.9547H5.17641L5.20216 15.9908Z" fill="#4CA07B"/>
<path d="M27.5896 0.271576H32.5341L35.9334 23.6605H30.7486L28.5317 7.42363L21.0656 23.6605H15.8786L27.5896 0.271576Z" fill="#4CA07B"/>
<path d="M50.8356 4.48091C47.9169 4.48091 45.2044 7.33239 44.3803 12.017C43.5219 16.7376 45.17 19.5212 48.0886 19.5212C49.6338 19.5212 51.0759 18.7744 52.2777 17.1429L55.9861 19.2157C53.5825 22.5085 50.621 24.0021 47.2989 24.0021C41.4273 24.0021 37.9936 19.5212 39.3585 12.017C40.732 4.5488 45.7452 0 51.6167 0C54.9474 0 57.3166 1.48515 58.5871 4.78642L54.1233 6.85714C53.4795 5.22772 52.3464 4.48091 50.8356 4.48091V4.48091Z" fill="#4CA07B"/>
<path d="M71.1629 4.48091C68.2443 4.48091 65.5317 7.33239 64.7076 12.017C63.8492 16.7376 65.4973 19.5212 68.416 19.5212C69.9611 19.5212 71.4033 18.7744 72.6051 17.1429L76.3134 19.2157C73.9099 22.5085 70.9483 24.0021 67.6262 24.0021C61.7546 24.0021 58.321 19.5212 59.6859 12.017C61.0593 4.5488 66.0725 0 71.9441 0C75.2747 0 77.644 1.48515 78.9144 4.78642L74.4635 6.85714C73.8068 5.22772 72.6737 4.48091 71.1629 4.48091V4.48091Z" fill="#4CA07B"/>
<path d="M90.0138 23.6542L85.623 15.9208L84.2452 23.6542H79.2321L83.3868 0.263092H88.4L87.0608 7.74188L92.8552 0.273701H98.6495L88.9923 11.9173L96.1944 23.6542H90.0138Z" fill="#4CA07B"/>
</g>
<defs>
<clipPath id="clip0_273:274">
<rect width="99" height="24" fill="white"/>
</clipPath>
</defs>
</svg>
